<!-- Left Align Text -->
<svg viewBox="0 0 24 24" width="64" height="64">
  <line stroke="black" stroke-width="2" x1="2" y1="4.2" x2="24" y2="4.2" />
  <line stroke="black" stroke-width="2" x1="2" y1="9.4" x2="16" y2="9.4" />
  <line stroke="black" stroke-width="2" x1="2" y1="14.6" x2="22" y2="14.6" />
  <line stroke="black" stroke-width="2" x1="2" y1="19.8" x2="16" y2="19.8" />
</svg>

<!-- Center Align Text -->
<svg viewBox="0 0 24 24" width="64" height="64">
  <line stroke="black" stroke-width="2" x1="2" y1="4.2" x2="22" y2="4.2" />
  <line stroke="black" stroke-width="2" x1="6" y1="9.4" x2="18" y2="9.4" />
  <line stroke="black" stroke-width="2" x1="2" y1="14.6" x2="22" y2="14.6" />
  <line stroke="black" stroke-width="2" x1="6" y1="19.8" x2="18" y2="19.8" />
</svg>

<!-- Right Align Text -->
<svg viewBox="0 0 24 24" width="64" height="64">
  <line stroke="black" stroke-width="2" x1="2" y1="4.2" x2="22" y2="4.2" />
  <line stroke="black" stroke-width="2" x1="8" y1="9.4" x2="22" y2="9.4" />
  <line stroke="black" stroke-width="2" x1="2" y1="14.6" x2="22" y2="14.6" />
  <line stroke="black" stroke-width="2" x1="8" y1="19.8" x2="22" y2="19.8" />
</svg>

<!-- Hamburger -->
<svg viewBox="0 0 24 24" width="64" height="64">
  <line stroke="black" stroke-width="2" x1="2" y1="5.5" x2="22" y2="5.5" />
  <line stroke="black" stroke-width="2" x1="2" y1="12" x2="22" y2="12" />
  <line stroke="black" stroke-width="2" x1="2" y1="18.5" x2="22" y2="18.5" />
</svg>

<!-- Character T in Times New Roman font -->
<svg viewBox="0 0 24 24" width="64" height="64">
  <polyline stroke="black" fill="none" stroke-width="2" stroke-linejoin="round"
    stroke-linecap="round" points="3 8, 3 4, 21 4, 21 8" />
  <line stroke="black" stroke-width="2" x1="12" y1="4" x2="12" y2="20" />
  <line stroke="black" stroke-width="2" stroke-linejoin="round"
    stroke-linecap="round" x1="8" y1="20" x2="16" y2="20" />
</svg>

<!-- Clock -->
<svg viewBox="0 0 24 24" width="64" height="64" stroke="black" stroke-width="2"
  fill="none">
  <circle cx="12" cy="12" r="9" />
  <polyline points="13 7, 13 14, 9 14" />
</svg>

<!-- Info -->
<svg viewBox="0 0 24 24" width="64" height="64" stroke="black" stroke-width="2"
  fill="none">
  <circle cx="12" cy="12" r="9" />
  <circle cx="12" cy="8" r="0.5" fill="black" />
  <line x1="12" y1="12" x2="12" y2="17" />
</svg>

<!-- Point Right -->
<svg viewBox="0 0 24 24" width="64" height="64" stroke="black" stroke-width="2" fill="none" stroke-linejoin="round" stroke-linecap="round">
<circle cx="12" cy="12" r="9" />
<line x1="8" y1="12" x2="16" y2="12" />
<polyline points="12 8, 16 12, 12 16" />
</svg>
