<!-- Horizontal Line -->
<svg viewBox="0 0 24 24" width="64" height="64" stroke="black" stroke-width="2">
  <path d="M4,4,h16" />
</svg>

<!-- Pause -->
<svg viewBox="0 0 24 24" width="64" height="64" stroke="black" stroke-width="2">
  <path d="
      M 8 8
      V 8 16
      m 8 0
      v -8" />
</svg>

<!-- Square -->
<svg viewBox="0 0 24 24" width="64" height="64" stroke="black" stroke-width="2"
  fill="none">
  <path d="
      M 2 2
      h 20
      v 20
      h -20
      z" />
</svg>

<!-- Circle -->
<svg viewBox="0 0 24 24" width="64" height="64" stroke="black" stroke-width="2"
  fill="none">
  <path d="
      M 22 12
      a 10 10 0 0 0 -10 -10
      a 10 10 0 0 0 -10 10
      a 10 10 0 0 0 10 10
      a 10 10 0 0 0 10 -10" />
</svg>

<!-- Calendar with Path element -->
<svg viewBox="0 0 24 24" width="64" height="64" stroke="black" stroke-width="2"
  fill="none" stroke-linejoin="round" stroke-linecap="round">
  <path d="
    M 4, 4
    h 16
    a 2, 2, 0, 0, 1, 2, 2
    v 14
    a 2, 2, 0, 0, 1, -2, 2
    h -16
    a 2, 2, 0, 0, 1, -2, -2
    v -14
    a 2, 2, 0, 0, 1, 2, -2" />
  <line x1="2" y1="10" x2="22" y2="10" />
  <line x1="7" y1="2" x2="7" y2="6" />
  <line x1="17" y1="2" x2="17" y2="6" />
</svg>

<!-- New Tab -->
<svg viewBox="0 0 24 24" width="64" height="64" stroke="black" stroke-width="2"
  fill="none" stroke-linejoin="round" stroke-linecap="round">
  <path d="
  M 18, 14
  v 6
  a 2, 2, 0, 0, 1, -2, 2
  H 6
  a 2, 2, 0, 0, 1, -2, -2
  V 10
  a 2, 2, 0, 0, 1, 2, -2
  H 12"
  />
  <line x1="12" y1="14" x2="20" y2="6" />
  <polyline points="16 6, 20 6, 20 10" />
</svg>
